<?xml version="1.0" encoding="UTF-8" standalone="no"?>
<!-- Created with Inkscape (http://www.inkscape.org/) -->

<svg
   width="210mm"
   height="297mm"
   viewBox="0 0 210 297"
   version="1.1"
   id="svg5"
   sodipodi:docname="box.svg"
   inkscape:version="1.2.2 (b0a84865, 2022-12-01)"
   xmlns:inkscape="http://www.inkscape.org/namespaces/inkscape"
   xmlns:sodipodi="http://sodipodi.sourceforge.net/DTD/sodipodi-0.dtd"
   xmlns="http://www.w3.org/2000/svg"
   xmlns:svg="http://www.w3.org/2000/svg">
  <sodipodi:namedview
     id="namedview7"
     pagecolor="#ffffff"
     bordercolor="#000000"
     borderopacity="0.25"
     inkscape:showpageshadow="2"
     inkscape:pageopacity="0.0"
     inkscape:pagecheckerboard="0"
     inkscape:deskcolor="#d1d1d1"
     inkscape:document-units="mm"
     showgrid="false"
     inkscape:zoom="0.5771749"
     inkscape:cx="654.04785"
     inkscape:cy="638.45465"
     inkscape:window-width="1440"
     inkscape:window-height="781"
     inkscape:window-x="0"
     inkscape:window-y="25"
     inkscape:window-maximized="0"
     inkscape:current-layer="layer1"
     showguides="false" />
  <defs
     id="defs2">
    <rect
       x="350.74636"
       y="917.68166"
       width="353.43751"
       height="45.749525"
       id="rect5164" />
  </defs>
  <g
     inkscape:label="Layer 1"
     inkscape:groupmode="layer"
     id="layer1">
    <g
       id="panel4538">
      <path
         style="fill:none;stroke:#000000;stroke-width:1"
         d="M 76.2 200.5 L 94 200.5 L 94 197.4 L 109 197.4 L 109 200.5 L 126.8 200.5 L 126.8 197.4 L 141.8 197.4 L 141.8 200.5 L 159.6 200.5 L 159.6 197.4 L 174.6 197.4 L 174.6 200.5 L 192.4 200.5"
         id="path2163" />
      <path
         style="fill:none;stroke:#000000;stroke-width:1"
         d="M 192.4 200.5 L 192.4 223 L 189.3 223 L 189.3 238 L 192.4 238 L 192.4 260.5"
         id="path2165" />
      <path
         style="fill:none;stroke:#000000;stroke-width:1"
         d="M 192.4 260.5 L 174.6 260.5 L 174.6 263.6 L 159.6 263.6 L 159.6 260.5 L 141.8 260.5 L 141.8 263.6 L 126.8 263.6 L 126.8 260.5 L 109 260.5 L 109 263.6 L 94 263.6 L 94 260.5 L 76.2 260.5"
         id="path2167" />
      <path
         style="fill:none;stroke:#000000;stroke-width:1"
         d="M 76.2 260.5 L 76.2 238 L 79.3 238 L 79.3 223 L 76.2 223 L 76.2 200.5"
         id="path2169" />
    </g>
    <g
       id="panel170">
      <path
         style="fill:none;stroke:#000000;stroke-width:1"
         d="M 8.1 79.3 L 30.6 79.3 L 30.6 76.2 L 45.6 76.2 L 45.6 79.3 L 68.1 79.3"
         id="path2172" />
      <path
         style="fill:none;stroke:#000000;stroke-width:1"
         d="M 68.1 79.3 L 68.1 94 L 71.2 94 L 71.2 109 L 68.1 109 L 68.1 126.8 L 71.2 126.8 L 71.2 141.8 L 68.1 141.8 L 68.1 159.6 L 71.2 159.6 L 71.2 174.6 L 68.1 174.6 L 68.1 189.3"
         id="path2174" />
      <path
         style="fill:none;stroke:#000000;stroke-width:1"
         d="M 68.1 189.3 L 45.6 189.3 L 45.6 192.4 L 30.6 192.4 L 30.6 189.3 L 8.1 189.3"
         id="path2176" />
      <path
         style="fill:none;stroke:#000000;stroke-width:1"
         d="M 8.1 189.3 L 8.1 174.6 L 5 174.6 L 5 159.6 L 8.1 159.6 L 8.1 141.8 L 5 141.8 L 5 126.8 L 8.1 126.8 L 8.1 109 L 5 109 L 5 94 L 8.1 94 L 8.1 79.3"
         id="path2178" />
    </g>
    <g
       id="panel9931">
      <path
         style="fill:none;stroke:#000000;stroke-width:1"
         d="M 76.2 76.2 L 94 76.2 L 94 79.3 L 109 79.3 L 109 76.2 L 126.8 76.2 L 126.8 79.3 L 141.8 79.3 L 141.8 76.2 L 159.6 76.2 L 159.6 79.3 L 174.6 79.3 L 174.6 76.2 L 192.4 76.2"
         id="path2181" />
      <path
         style="fill:none;stroke:#000000;stroke-width:1"
         d="M 192.4 76.2 L 192.4 94 L 189.3 94 L 189.3 109 L 192.4 109 L 192.4 126.8 L 189.3 126.8 L 189.3 141.8 L 192.4 141.8 L 192.4 159.6 L 189.3 159.6 L 189.3 174.6 L 192.4 174.6 L 192.4 192.4"
         id="path2183" />
      <path
         style="fill:none;stroke:#000000;stroke-width:1"
         d="M 192.4 192.4 L 174.6 192.4 L 174.6 189.3 L 159.6 189.3 L 159.6 192.4 L 141.8 192.4 L 141.8 189.3 L 126.8 189.3 L 126.8 192.4 L 109 192.4 L 109 189.3 L 94 189.3 L 94 192.4 L 76.2 192.4"
         id="path2185" />
      <path
         style="fill:none;stroke:#000000;stroke-width:1"
         d="M 76.2 192.4 L 76.2 174.6 L 79.3 174.6 L 79.3 159.6 L 76.2 159.6 L 76.2 141.8 L 79.3 141.8 L 79.3 126.8 L 76.2 126.8 L 76.2 109 L 79.3 109 L 79.3 94 L 76.2 94 L 76.2 76.2"
         id="path2187" />
    </g>
    <g
       id="panel2570">
      <path
         style="fill:none;stroke:#000000;stroke-width:1"
         d="M 200.5 79.3 L 223 79.3 L 223 76.2 L 238 76.2 L 238 79.3 L 260.5 79.3"
         id="path2190" />
      <path
         style="fill:none;stroke:#000000;stroke-width:1"
         d="M 260.5 79.3 L 260.5 94 L 263.6 94 L 263.6 109 L 260.5 109 L 260.5 126.8 L 263.6 126.8 L 263.6 141.8 L 260.5 141.8 L 260.5 159.6 L 263.6 159.6 L 263.6 174.6 L 260.5 174.6 L 260.5 189.3"
         id="path2192" />
      <path
         style="fill:none;stroke:#000000;stroke-width:1"
         d="M 260.5 189.3 L 238 189.3 L 238 192.4 L 223 192.4 L 223 189.3 L 200.5 189.3"
         id="path2194" />
      <path
         style="fill:none;stroke:#000000;stroke-width:1"
         d="M 200.5 189.3 L 200.5 174.6 L 197.4 174.6 L 197.4 159.6 L 200.5 159.6 L 200.5 141.8 L 197.4 141.8 L 197.4 126.8 L 200.5 126.8 L 200.5 109 L 197.4 109 L 197.4 94 L 200.5 94 L 200.5 79.3"
         id="path2196" />
    </g>
    <g
       id="panel1563">
      <path
         style="fill:none;stroke:#000000;stroke-width:1"
         d="M 268.6 76.2 L 286.4 76.2 L 286.4 79.3 L 301.4 79.3 L 301.4 76.2 L 319.2 76.2 L 319.2 79.3 L 334.2 79.3 L 334.2 76.2 L 352 76.2 L 352 79.3 L 367 79.3 L 367 76.2 L 384.8 76.2"
         id="path2199" />
      <path
         style="fill:none;stroke:#000000;stroke-width:1"
         d="M 384.8,76.2 V 94 h -3.1 v 15 h 6.275 c 5.05856,6.30804 4.6064,12.20788 0,17.8 H 381.7 v 15 h 6.275 c 4.33018,6.29418 4.26469,12.22206 0,17.8 H 381.7 v 15 h 3.1 v 17.8"
         id="path2201"
         sodipodi:nodetypes="cccccccccccccc" />
      <path
         style="fill:none;stroke:#000000;stroke-width:1"
         d="M 384.8 192.4 L 367 192.4 L 367 189.3 L 352 189.3 L 352 192.4 L 334.2 192.4 L 334.2 189.3 L 319.2 189.3 L 319.2 192.4 L 301.4 192.4 L 301.4 189.3 L 286.4 189.3 L 286.4 192.4 L 268.6 192.4"
         id="path2203" />
      <path
         style="fill:none;stroke:#000000;stroke-width:1"
         d="M 268.6 192.4 L 268.6 174.6 L 271.7 174.6 L 271.7 159.6 L 268.6 159.6 L 268.6 141.8 L 271.7 141.8 L 271.7 126.8 L 268.6 126.8 L 268.6 109 L 271.7 109 L 271.7 94 L 268.6 94 L 268.6 76.2"
         id="path2205" />
    </g>
    <g
       id="panel3097"
       style="stroke-width:1;stroke-dasharray:none">
      <path
         style="fill:none;stroke:#000000;stroke-width:1;stroke-dasharray:none"
         d="M 76.2 8.1 L 94 8.1 L 94 5 L 109 5 L 109 8.1 L 126.8 8.1 L 126.8 5 L 141.8 5 L 141.8 8.1 L 159.6 8.1 L 159.6 5 L 174.6 5 L 174.6 8.1 L 192.4 8.1"
         id="path2208" />
      <path
         style="fill:none;stroke:#000000;stroke-width:1;stroke-dasharray:none"
         d="M 192.4 8.1 L 192.4 30.6 L 189.3 30.6 L 189.3 45.6 L 192.4 45.6 L 192.4 68.1"
         id="path2210" />
      <path
         style="fill:none;stroke:#000000;stroke-width:1;stroke-dasharray:none"
         d="M 192.4 68.1 L 174.6 68.1 L 174.6 71.2 L 159.6 71.2 L 159.6 68.1 L 141.8 68.1 L 141.8 71.2 L 126.8 71.2 L 126.8 68.1 L 109 68.1 L 109 71.2 L 94 71.2 L 94 68.1 L 76.2 68.1"
         id="path2212" />
      <path
         style="fill:none;stroke:#000000;stroke-width:1;stroke-dasharray:none"
         d="M 76.2 68.1 L 76.2 45.6 L 79.3 45.6 L 79.3 30.6 L 76.2 30.6 L 76.2 8.1"
         id="path2214" />
    </g>
    <circle
       style="fill:none;stroke:#000000;stroke-width:0.808774;stroke-dasharray:none;stroke-opacity:1"
       id="path2315-8"
       cx="303.26691"
       cy="112.10062"
       r="10.595613" />
    <circle
       style="fill:none;stroke:#000000;stroke-width:0.808774;stroke-dasharray:none;stroke-opacity:1"
       id="circle4500-7"
       cx="303.26691"
       cy="112.10062"
       r="10.595613" />
    <circle
       style="fill:none;stroke:#000000;stroke-width:0.808774;stroke-dasharray:none;stroke-opacity:1"
       id="path2315-8-6"
       cx="350.13309"
       cy="112.10062"
       r="10.595613" />
    <circle
       style="fill:none;stroke:#000000;stroke-width:0.808774;stroke-dasharray:none;stroke-opacity:1"
       id="circle4500-7-2"
       cx="350.13309"
       cy="112.10062"
       r="10.595613" />
    <circle
       style="fill:none;stroke:#000000;stroke-width:0.808774;stroke-dasharray:none;stroke-opacity:1"
       id="path2315-8-8"
       cx="303.26691"
       cy="156.49937"
       r="10.595613" />
    <circle
       style="fill:none;stroke:#000000;stroke-width:0.808774;stroke-dasharray:none;stroke-opacity:1"
       id="circle4500-7-5"
       cx="303.26691"
       cy="156.49937"
       r="10.595613" />
    <circle
       style="fill:none;stroke:#000000;stroke-width:0.808774;stroke-dasharray:none;stroke-opacity:1"
       id="path2315-8-6-9"
       cx="350.13309"
       cy="156.49937"
       r="10.595613" />
    <circle
       style="fill:none;stroke:#000000;stroke-width:0.808774;stroke-dasharray:none;stroke-opacity:1"
       id="circle4500-7-2-4"
       cx="350.13309"
       cy="156.49937"
       r="10.595613" />
    <ellipse
       style="fill:none;stroke:#000000;stroke-width:0.842567;stroke-dasharray:none;stroke-opacity:1"
       id="path4830"
       cx="158.7384"
       cy="46.775185"
       rx="1.5959334"
       ry="1.6005534" />
    <ellipse
       style="fill:none;stroke:#000000;stroke-width:0.842567;stroke-dasharray:none;stroke-opacity:1"
       id="ellipse4841"
       cx="158.7384"
       cy="46.775185"
       rx="1.5959334"
       ry="1.6005534" />
    <ellipse
       style="fill:none;stroke:#000000;stroke-width:0.842567;stroke-dasharray:none;stroke-opacity:1"
       id="ellipse4841-0"
       cx="165.39349"
       cy="46.775185"
       rx="1.5959334"
       ry="1.6005534" />
    <ellipse
       style="fill:none;stroke:#000000;stroke-width:0.842567;stroke-dasharray:none;stroke-opacity:1"
       id="path4830-5"
       cx="172.0486"
       cy="46.775185"
       rx="1.5959334"
       ry="1.6005534" />
    <ellipse
       style="fill:none;stroke:#000000;stroke-width:0.842567;stroke-dasharray:none;stroke-opacity:1"
       id="ellipse4841-6"
       cx="172.0486"
       cy="46.775185"
       rx="1.5959334"
       ry="1.6005534" />
    <ellipse
       style="fill:none;stroke:#000000;stroke-width:0.842567;stroke-dasharray:none;stroke-opacity:1"
       id="ellipse4841-0-3"
       cx="178.70398"
       cy="46.775185"
       rx="1.5959334"
       ry="1.6005534" />
    <ellipse
       style="fill:none;stroke:#000000;stroke-width:0.842567;stroke-dasharray:none;stroke-opacity:1"
       id="path4830-9"
       cx="155.1608"
       cy="40.797024"
       rx="1.5959334"
       ry="1.6005534" />
    <ellipse
       style="fill:none;stroke:#000000;stroke-width:0.842567;stroke-dasharray:none;stroke-opacity:1"
       id="ellipse4841-7"
       cx="155.1608"
       cy="40.797024"
       rx="1.5959334"
       ry="1.6005534" />
    <ellipse
       style="fill:none;stroke:#000000;stroke-width:0.842567;stroke-dasharray:none;stroke-opacity:1"
       id="ellipse4841-0-5"
       cx="161.81589"
       cy="40.797024"
       rx="1.5959334"
       ry="1.6005534" />
    <ellipse
       style="fill:none;stroke:#000000;stroke-width:0.842567;stroke-dasharray:none;stroke-opacity:1"
       id="path4830-5-6"
       cx="168.47099"
       cy="40.797024"
       rx="1.5959334"
       ry="1.6005534" />
    <ellipse
       style="fill:none;stroke:#000000;stroke-width:0.842567;stroke-dasharray:none;stroke-opacity:1"
       id="ellipse4841-6-5"
       cx="168.47099"
       cy="40.797024"
       rx="1.5959334"
       ry="1.6005534" />
    <ellipse
       style="fill:none;stroke:#000000;stroke-width:0.842567;stroke-dasharray:none;stroke-opacity:1"
       id="ellipse4841-0-3-3"
       cx="175.12637"
       cy="40.797024"
       rx="1.5959334"
       ry="1.6005534" />
    <ellipse
       style="fill:none;stroke:#000000;stroke-width:0.842567;stroke-dasharray:none;stroke-opacity:1"
       id="path4830-6"
       cx="155.1608"
       cy="52.753345"
       rx="1.5959334"
       ry="1.6005534" />
    <ellipse
       style="fill:none;stroke:#000000;stroke-width:0.842567;stroke-dasharray:none;stroke-opacity:1"
       id="ellipse4841-3"
       cx="155.1608"
       cy="52.753345"
       rx="1.5959334"
       ry="1.6005534" />
    <ellipse
       style="fill:none;stroke:#000000;stroke-width:0.842567;stroke-dasharray:none;stroke-opacity:1"
       id="ellipse4841-0-0"
       cx="161.81589"
       cy="52.753345"
       rx="1.5959334"
       ry="1.6005534" />
    <ellipse
       style="fill:none;stroke:#000000;stroke-width:0.842567;stroke-dasharray:none;stroke-opacity:1"
       id="path4830-5-8"
       cx="168.47099"
       cy="52.753345"
       rx="1.5959334"
       ry="1.6005534" />
    <ellipse
       style="fill:none;stroke:#000000;stroke-width:0.842567;stroke-dasharray:none;stroke-opacity:1"
       id="ellipse4841-6-4"
       cx="168.47099"
       cy="52.753345"
       rx="1.5959334"
       ry="1.6005534" />
    <ellipse
       style="fill:none;stroke:#000000;stroke-width:0.842567;stroke-dasharray:none;stroke-opacity:1"
       id="ellipse4841-0-3-0"
       cx="175.12637"
       cy="52.753345"
       rx="1.5959334"
       ry="1.6005534" />
    <ellipse
       style="fill:none;stroke:#000000;stroke-width:0.842567;stroke-dasharray:none;stroke-opacity:1"
       id="path4830-4"
       cx="158.7384"
       cy="58.731506"
       rx="1.5959334"
       ry="1.6005534" />
    <ellipse
       style="fill:none;stroke:#000000;stroke-width:0.842567;stroke-dasharray:none;stroke-opacity:1"
       id="ellipse4841-64"
       cx="158.7384"
       cy="58.731506"
       rx="1.5959334"
       ry="1.6005534" />
    <ellipse
       style="fill:none;stroke:#000000;stroke-width:0.842567;stroke-dasharray:none;stroke-opacity:1"
       id="ellipse4841-0-6"
       cx="165.39349"
       cy="58.731506"
       rx="1.5959334"
       ry="1.6005534" />
    <ellipse
       style="fill:none;stroke:#000000;stroke-width:0.842567;stroke-dasharray:none;stroke-opacity:1"
       id="path4830-5-4"
       cx="172.0486"
       cy="58.731506"
       rx="1.5959334"
       ry="1.6005534" />
    <ellipse
       style="fill:none;stroke:#000000;stroke-width:0.842567;stroke-dasharray:none;stroke-opacity:1"
       id="ellipse4841-6-3"
       cx="172.0486"
       cy="58.731506"
       rx="1.5959334"
       ry="1.6005534" />
    <ellipse
       style="fill:none;stroke:#000000;stroke-width:0.842567;stroke-dasharray:none;stroke-opacity:1"
       id="ellipse4841-0-3-8"
       cx="178.70398"
       cy="58.731506"
       rx="1.5959334"
       ry="1.6005534" />
    <g
       aria-label="Dingo Inc."
       transform="matrix(0.96589773,0,0,0.96589773,-234.45787,-643.52818)"
       id="text5162"
       style="white-space:pre;shape-inside:url(#rect5164);stroke:#aa0000;stroke-width:0.677534;fill:#aa0000;stroke-opacity:1">
      <path
         d="m 359.28906,924.27609 q 0,1.18945 -0.52148,2.15625 -0.51563,0.9668 -1.37696,1.5 -0.59765,0.36914 -1.33593,0.5332 -0.73242,0.16406 -1.9336,0.16406 h -2.20312 v -8.7246 h 2.17969 q 1.27734,0 2.02734,0.1875 0.75586,0.18164 1.27734,0.5039 0.89063,0.55664 1.38868,1.48242 0.49804,0.92578 0.49804,2.19727 z m -1.21289,-0.0176 q 0,-1.02539 -0.35742,-1.72851 -0.35742,-0.70313 -1.06641,-1.10743 -0.51562,-0.29297 -1.0957,-0.40429 -0.58008,-0.11719 -1.38867,-0.11719 h -1.08985 v 6.73242 h 1.08985 q 0.83789,0 1.45898,-0.12305 0.62696,-0.12304 1.14844,-0.45703 0.65039,-0.41601 0.97266,-1.0957 0.32812,-0.67969 0.32812,-1.69922 z"
         id="path5168"
         style="fill:#aa0000;stroke:#aa0000;stroke-opacity:1" />
      <path
         d="m 362.25977,920.98898 h -1.24219 v -1.14258 h 1.24219 z m -0.0703,7.64062 h -1.10156 v -6.54492 h 1.10156 z"
         id="path5170"
         style="fill:#aa0000;stroke:#aa0000;stroke-opacity:1" />
      <path
         d="m 369.8418,928.6296 h -1.10157 v -3.72656 q 0,-0.45117 -0.0527,-0.84375 -0.0527,-0.39844 -0.19336,-0.62109 -0.14648,-0.2461 -0.42187,-0.36328 -0.2754,-0.12305 -0.71485,-0.12305 -0.45117,0 -0.94336,0.22266 -0.49219,0.22265 -0.94336,0.56836 v 4.88671 h -1.10156 v -6.54492 h 1.10156 v 0.72657 q 0.51563,-0.42774 1.06641,-0.66797 0.55078,-0.24024 1.13086,-0.24024 1.06055,0 1.61719,0.63867 0.55664,0.63868 0.55664,1.83985 z"
         id="path5172"
         style="fill:#aa0000;stroke:#aa0000;stroke-opacity:1" />
      <path
         d="m 377.27148,927.88546 q 0,1.66407 -0.75586,2.44336 -0.75585,0.7793 -2.32617,0.7793 -0.52148,0 -1.01953,-0.0762 -0.49219,-0.0703 -0.97265,-0.20508 v -1.125 h 0.0586 q 0.26953,0.10547 0.85547,0.25781 0.58594,0.15821 1.17187,0.15821 0.5625,0 0.93164,-0.13477 0.36914,-0.13477 0.57422,-0.375 0.20508,-0.22852 0.29297,-0.55078 0.0879,-0.32227 0.0879,-0.7207 v -0.59766 q -0.49805,0.39844 -0.95508,0.59766 -0.45117,0.19336 -1.15429,0.19336 -1.17188,0 -1.86328,-0.84375 -0.68555,-0.84961 -0.68555,-2.39063 0,-0.84375 0.23437,-1.45312 0.24024,-0.61524 0.65039,-1.06055 0.38086,-0.41602 0.92579,-0.64453 0.54492,-0.23438 1.08398,-0.23438 0.56836,0 0.94922,0.11719 0.38672,0.11133 0.81445,0.3457 l 0.0703,-0.28125 h 1.03125 z m -1.10156,-1.05468 v -3.56836 q -0.43945,-0.19922 -0.82031,-0.28125 -0.375,-0.0879 -0.75,-0.0879 -0.9082,0 -1.42969,0.60937 -0.52148,0.60938 -0.52148,1.76953 0,1.10157 0.38672,1.66992 0.38671,0.56836 1.2832,0.56836 0.48047,0 0.96094,-0.18164 0.48632,-0.1875 0.89062,-0.49804 z"
         id="path5174"
         style="fill:#aa0000;stroke:#aa0000;stroke-opacity:1" />
      <path
         d="m 385.01758,925.36007 q 0,1.59961 -0.82031,2.52539 -0.82032,0.92579 -2.19727,0.92579 -1.38867,0 -2.20898,-0.92579 -0.81446,-0.92578 -0.81446,-2.52539 0,-1.59961 0.81446,-2.52539 0.82031,-0.93164 2.20898,-0.93164 1.37695,0 2.19727,0.93164 0.82031,0.92578 0.82031,2.52539 z m -1.13672,0 q 0,-1.27148 -0.49805,-1.88672 -0.49804,-0.62109 -1.38281,-0.62109 -0.89648,0 -1.39453,0.62109 -0.49219,0.61524 -0.49219,1.88672 0,1.23047 0.49805,1.86914 0.49804,0.63282 1.38867,0.63282 0.87891,0 1.37695,-0.62696 0.50391,-0.63281 0.50391,-1.875 z"
         id="path5176"
         style="fill:#aa0000;stroke:#aa0000;stroke-opacity:1" />
      <path
         d="m 394.10547,928.6296 h -3.44531 v -0.89062 h 1.14257 v -6.94336 h -1.14257 V 919.905 h 3.44531 v 0.89062 h -1.14258 v 6.94336 h 1.14258 z"
         id="path5178"
         style="fill:#aa0000;stroke:#aa0000;stroke-opacity:1" />
      <path
         d="m 401.46484,928.6296 h -1.10156 v -3.72656 q 0,-0.45117 -0.0527,-0.84375 -0.0527,-0.39844 -0.19336,-0.62109 -0.14649,-0.2461 -0.42188,-0.36328 -0.27539,-0.12305 -0.71484,-0.12305 -0.45117,0 -0.94336,0.22266 -0.49219,0.22265 -0.94336,0.56836 v 4.88671 h -1.10156 v -6.54492 h 1.10156 v 0.72657 q 0.51562,-0.42774 1.06641,-0.66797 0.55078,-0.24024 1.13086,-0.24024 1.06054,0 1.61718,0.63867 0.55664,0.63868 0.55664,1.83985 z"
         id="path5180"
         style="fill:#aa0000;stroke:#aa0000;stroke-opacity:1" />
      <path
         d="m 408.42578,928.21945 q -0.55078,0.26367 -1.04883,0.41015 -0.49218,0.14649 -1.04883,0.14649 -0.70898,0 -1.30078,-0.20508 -0.59179,-0.21094 -1.01367,-0.63281 -0.42773,-0.42188 -0.66211,-1.06641 -0.23437,-0.64453 -0.23437,-1.50586 0,-1.60547 0.8789,-2.51953 0.88477,-0.91406 2.33203,-0.91406 0.5625,0 1.10157,0.1582 0.54492,0.15821 0.99609,0.38672 v 1.22461 h -0.0586 q -0.50391,-0.39258 -1.04297,-0.60352 -0.5332,-0.21093 -1.04297,-0.21093 -0.9375,0 -1.48242,0.63281 -0.53906,0.62695 -0.53906,1.8457 0,1.1836 0.52734,1.82227 0.5332,0.63281 1.49414,0.63281 0.33398,0 0.67969,-0.0879 0.3457,-0.0879 0.62109,-0.22852 0.24024,-0.12304 0.45117,-0.25781 0.21094,-0.14062 0.33399,-0.24023 h 0.0586 z"
         id="path5182"
         style="fill:#aa0000;stroke:#aa0000;stroke-opacity:1" />
      <path
         d="m 411.63672,928.6296 h -1.40039 v -1.66992 h 1.40039 z"
         id="path5184"
         style="fill:#aa0000;stroke:#aa0000;stroke-opacity:1" />
    </g>
    <rect
       style="fill:none;fill-opacity:1;stroke:#000000;stroke-width:1;stroke-dasharray:none;stroke-opacity:1"
       id="rect5241"
       width="20.420359"
       height="12.420359"
       x="91.037308"
       y="47.275185" />
  </g>
</svg>
